<mxfile host="app.diagrams.net" modified="2023-10-29T06:10:23.204Z" agent="Mozilla/5.0 (Windows NT 10.0; Win64; x64) AppleWebKit/537.36 (KHTML, like Gecko) Chrome/118.0.0.0 Safari/537.36" etag="jagLy-enCOUY3MxKK_CY" version="22.0.8" type="github">
  <diagram name="Страница — 1" id="MyXJPD0mudHP__JJlh-6">
    <mxGraphModel dx="1216" dy="864" grid="1" gridSize="10" guides="1" tooltips="1" connect="1" arrows="1" fold="1" page="1" pageScale="1" pageWidth="1654" pageHeight="1169" math="0" shadow="0">
      <root>
        <mxCell id="0" />
        <mxCell id="1" parent="0" />
        <mxCell id="87jQ6iExm2bQr04ry79y-2" value="&lt;h1&gt;Компания&lt;/h1&gt;" style="rounded=0;whiteSpace=wrap;html=1;fillColor=#fff2cc;strokeColor=#d6b656;" parent="1" vertex="1">
          <mxGeometry x="320" y="240" width="240" height="80" as="geometry" />
        </mxCell>
        <mxCell id="87jQ6iExm2bQr04ry79y-3" value="&lt;h1&gt;Отдел&lt;/h1&gt;" style="rounded=0;whiteSpace=wrap;html=1;fillColor=#fff2cc;strokeColor=#d6b656;" parent="1" vertex="1">
          <mxGeometry x="880" y="240" width="240" height="80" as="geometry" />
        </mxCell>
        <mxCell id="87jQ6iExm2bQr04ry79y-4" value="&lt;h1&gt;Сотрудники&lt;/h1&gt;" style="rounded=0;whiteSpace=wrap;html=1;fillColor=#fff2cc;strokeColor=#d6b656;" parent="1" vertex="1">
          <mxGeometry x="880" y="560" width="240" height="80" as="geometry" />
        </mxCell>
        <mxCell id="87jQ6iExm2bQr04ry79y-5" value="&lt;h1&gt;Проект&lt;/h1&gt;" style="rounded=0;whiteSpace=wrap;html=1;fillColor=#fff2cc;strokeColor=#d6b656;" parent="1" vertex="1">
          <mxGeometry x="320" y="560" width="240" height="80" as="geometry" />
        </mxCell>
        <mxCell id="87jQ6iExm2bQr04ry79y-6" value="&lt;h3&gt;Имеет&lt;/h3&gt;" style="rhombus;whiteSpace=wrap;html=1;fillColor=#f8cecc;strokeColor=#b85450;" parent="1" vertex="1">
          <mxGeometry x="670" y="240" width="110" height="80" as="geometry" />
        </mxCell>
        <mxCell id="87jQ6iExm2bQr04ry79y-7" value="&lt;h3&gt;Принадлежит&lt;/h3&gt;" style="rhombus;whiteSpace=wrap;html=1;fillColor=#f8cecc;strokeColor=#b85450;" parent="1" vertex="1">
          <mxGeometry x="670" y="560" width="110" height="80" as="geometry" />
        </mxCell>
        <mxCell id="87jQ6iExm2bQr04ry79y-8" value="&lt;h3&gt;Включает&lt;/h3&gt;" style="rhombus;whiteSpace=wrap;html=1;fillColor=#f8cecc;strokeColor=#b85450;" parent="1" vertex="1">
          <mxGeometry x="945" y="400" width="110" height="80" as="geometry" />
        </mxCell>
        <mxCell id="87jQ6iExm2bQr04ry79y-11" value="" style="endArrow=classic;html=1;rounded=0;entryX=0;entryY=0.5;entryDx=0;entryDy=0;" parent="1" edge="1">
          <mxGeometry width="50" height="50" relative="1" as="geometry">
            <mxPoint x="780" y="280" as="sourcePoint" />
            <mxPoint x="879.9999999999998" y="279.41" as="targetPoint" />
          </mxGeometry>
        </mxCell>
        <mxCell id="87jQ6iExm2bQr04ry79y-12" value="" style="endArrow=classic;html=1;rounded=0;exitX=1;exitY=0.5;exitDx=0;exitDy=0;" parent="1" edge="1">
          <mxGeometry width="50" height="50" relative="1" as="geometry">
            <mxPoint x="780" y="599.41" as="sourcePoint" />
            <mxPoint x="880" y="600" as="targetPoint" />
          </mxGeometry>
        </mxCell>
        <mxCell id="87jQ6iExm2bQr04ry79y-13" value="" style="endArrow=classic;html=1;rounded=0;exitX=1;exitY=0.5;exitDx=0;exitDy=0;" parent="1" edge="1">
          <mxGeometry width="50" height="50" relative="1" as="geometry">
            <mxPoint x="780" y="279.40999999999997" as="sourcePoint" />
            <mxPoint x="870" y="280" as="targetPoint" />
          </mxGeometry>
        </mxCell>
        <mxCell id="87jQ6iExm2bQr04ry79y-14" value="" style="endArrow=classic;html=1;rounded=0;exitX=1;exitY=0.5;exitDx=0;exitDy=0;" parent="1" edge="1">
          <mxGeometry width="50" height="50" relative="1" as="geometry">
            <mxPoint x="777" y="599.41" as="sourcePoint" />
            <mxPoint x="870" y="599" as="targetPoint" />
          </mxGeometry>
        </mxCell>
        <mxCell id="87jQ6iExm2bQr04ry79y-15" value="" style="endArrow=classic;html=1;rounded=0;exitX=0;exitY=0.5;exitDx=0;exitDy=0;" parent="1" source="87jQ6iExm2bQr04ry79y-7" edge="1">
          <mxGeometry width="50" height="50" relative="1" as="geometry">
            <mxPoint x="660" y="599.41" as="sourcePoint" />
            <mxPoint x="560" y="600" as="targetPoint" />
          </mxGeometry>
        </mxCell>
        <mxCell id="87jQ6iExm2bQr04ry79y-16" value="" style="endArrow=classic;html=1;rounded=0;exitX=0;exitY=0.5;exitDx=0;exitDy=0;" parent="1" source="87jQ6iExm2bQr04ry79y-6" edge="1">
          <mxGeometry width="50" height="50" relative="1" as="geometry">
            <mxPoint x="660" y="279" as="sourcePoint" />
            <mxPoint x="560" y="279.40999999999997" as="targetPoint" />
          </mxGeometry>
        </mxCell>
        <mxCell id="87jQ6iExm2bQr04ry79y-17" value="" style="endArrow=classic;html=1;rounded=0;exitX=0.5;exitY=0;exitDx=0;exitDy=0;" parent="1" source="87jQ6iExm2bQr04ry79y-8" edge="1">
          <mxGeometry width="50" height="50" relative="1" as="geometry">
            <mxPoint x="999" y="390" as="sourcePoint" />
            <mxPoint x="999.4100000000001" y="320" as="targetPoint" />
            <Array as="points">
              <mxPoint x="999.4100000000001" y="360" />
            </Array>
          </mxGeometry>
        </mxCell>
        <mxCell id="87jQ6iExm2bQr04ry79y-18" value="" style="endArrow=classic;html=1;rounded=0;exitX=1;exitY=0.5;exitDx=0;exitDy=0;" parent="1" edge="1">
          <mxGeometry width="50" height="50" relative="1" as="geometry">
            <mxPoint x="999.4100000000001" y="480" as="sourcePoint" />
            <mxPoint x="999.41" y="550" as="targetPoint" />
          </mxGeometry>
        </mxCell>
        <mxCell id="87jQ6iExm2bQr04ry79y-19" value="" style="endArrow=classic;html=1;rounded=0;exitX=1;exitY=0.5;exitDx=0;exitDy=0;" parent="1" edge="1">
          <mxGeometry width="50" height="50" relative="1" as="geometry">
            <mxPoint x="999.4100000000001" y="480" as="sourcePoint" />
            <mxPoint x="999.4100000000001" y="560" as="targetPoint" />
          </mxGeometry>
        </mxCell>
        <mxCell id="URPomIlKNA_k9wig0QV1-17" style="edgeStyle=orthogonalEdgeStyle;rounded=0;orthogonalLoop=1;jettySize=auto;html=1;entryX=0;entryY=0.5;entryDx=0;entryDy=0;" edge="1" parent="1" source="87jQ6iExm2bQr04ry79y-20" target="87jQ6iExm2bQr04ry79y-2">
          <mxGeometry relative="1" as="geometry" />
        </mxCell>
        <mxCell id="87jQ6iExm2bQr04ry79y-20" value="&lt;h4&gt;&lt;font style=&quot;vertical-align: inherit;&quot;&gt;&lt;font style=&quot;vertical-align: inherit;&quot;&gt;&lt;font style=&quot;vertical-align: inherit;&quot;&gt;&lt;font style=&quot;vertical-align: inherit;&quot;&gt;Company_id (id компании)&lt;/font&gt;&lt;/font&gt;&lt;/font&gt;&lt;/font&gt;&lt;/h4&gt;" style="rounded=1;whiteSpace=wrap;html=1;fillColor=#d5e8d4;strokeColor=#82b366;" parent="1" vertex="1">
          <mxGeometry x="10" y="190" width="230" height="40" as="geometry" />
        </mxCell>
        <mxCell id="URPomIlKNA_k9wig0QV1-16" style="edgeStyle=orthogonalEdgeStyle;rounded=0;orthogonalLoop=1;jettySize=auto;html=1;entryX=0;entryY=0.5;entryDx=0;entryDy=0;" edge="1" parent="1" source="87jQ6iExm2bQr04ry79y-21" target="87jQ6iExm2bQr04ry79y-2">
          <mxGeometry relative="1" as="geometry" />
        </mxCell>
        <mxCell id="87jQ6iExm2bQr04ry79y-21" value="&lt;h4&gt;Company_name (название)&lt;br&gt;&lt;/h4&gt;" style="rounded=1;whiteSpace=wrap;html=1;" parent="1" vertex="1">
          <mxGeometry x="10" y="240" width="230" height="40" as="geometry" />
        </mxCell>
        <mxCell id="URPomIlKNA_k9wig0QV1-18" style="edgeStyle=orthogonalEdgeStyle;rounded=0;orthogonalLoop=1;jettySize=auto;html=1;entryX=0;entryY=0.5;entryDx=0;entryDy=0;" edge="1" parent="1" source="87jQ6iExm2bQr04ry79y-22" target="87jQ6iExm2bQr04ry79y-2">
          <mxGeometry relative="1" as="geometry" />
        </mxCell>
        <mxCell id="87jQ6iExm2bQr04ry79y-22" value="&lt;h4&gt;Founder (основатель)&lt;/h4&gt;" style="rounded=1;whiteSpace=wrap;html=1;" parent="1" vertex="1">
          <mxGeometry x="10" y="290" width="230" height="40" as="geometry" />
        </mxCell>
        <mxCell id="URPomIlKNA_k9wig0QV1-19" style="edgeStyle=orthogonalEdgeStyle;rounded=0;orthogonalLoop=1;jettySize=auto;html=1;entryX=0;entryY=0.5;entryDx=0;entryDy=0;" edge="1" parent="1" source="87jQ6iExm2bQr04ry79y-23" target="87jQ6iExm2bQr04ry79y-2">
          <mxGeometry relative="1" as="geometry" />
        </mxCell>
        <mxCell id="87jQ6iExm2bQr04ry79y-23" value="&lt;h4&gt;Founding_year (год основания)&lt;/h4&gt;" style="rounded=1;whiteSpace=wrap;html=1;" parent="1" vertex="1">
          <mxGeometry x="10" y="340" width="230" height="40" as="geometry" />
        </mxCell>
        <mxCell id="URPomIlKNA_k9wig0QV1-12" style="edgeStyle=orthogonalEdgeStyle;rounded=0;orthogonalLoop=1;jettySize=auto;html=1;entryX=0;entryY=0.5;entryDx=0;entryDy=0;" edge="1" parent="1" source="87jQ6iExm2bQr04ry79y-24" target="87jQ6iExm2bQr04ry79y-5">
          <mxGeometry relative="1" as="geometry" />
        </mxCell>
        <mxCell id="87jQ6iExm2bQr04ry79y-24" value="&lt;h4&gt;Employee_id (id сотрудника)&lt;/h4&gt;" style="rounded=1;whiteSpace=wrap;html=1;fillColor=#dae8fc;strokeColor=#6c8ebf;" parent="1" vertex="1">
          <mxGeometry x="10" y="540" width="230" height="40" as="geometry" />
        </mxCell>
        <mxCell id="URPomIlKNA_k9wig0QV1-13" style="edgeStyle=orthogonalEdgeStyle;rounded=0;orthogonalLoop=1;jettySize=auto;html=1;" edge="1" parent="1" source="87jQ6iExm2bQr04ry79y-25">
          <mxGeometry relative="1" as="geometry">
            <mxPoint x="320" y="600" as="targetPoint" />
          </mxGeometry>
        </mxCell>
        <mxCell id="87jQ6iExm2bQr04ry79y-25" value="&lt;h4&gt;Title (название)&lt;/h4&gt;" style="rounded=1;whiteSpace=wrap;html=1;" parent="1" vertex="1">
          <mxGeometry x="10" y="590" width="230" height="40" as="geometry" />
        </mxCell>
        <mxCell id="URPomIlKNA_k9wig0QV1-14" style="edgeStyle=orthogonalEdgeStyle;rounded=0;orthogonalLoop=1;jettySize=auto;html=1;entryX=0;entryY=0.5;entryDx=0;entryDy=0;" edge="1" parent="1" source="87jQ6iExm2bQr04ry79y-26" target="87jQ6iExm2bQr04ry79y-5">
          <mxGeometry relative="1" as="geometry" />
        </mxCell>
        <mxCell id="87jQ6iExm2bQr04ry79y-26" value="&lt;h4&gt;Description (описание)&lt;/h4&gt;" style="rounded=1;whiteSpace=wrap;html=1;" parent="1" vertex="1">
          <mxGeometry x="10" y="640" width="230" height="40" as="geometry" />
        </mxCell>
        <mxCell id="URPomIlKNA_k9wig0QV1-15" style="edgeStyle=orthogonalEdgeStyle;rounded=0;orthogonalLoop=1;jettySize=auto;html=1;entryX=0;entryY=0.5;entryDx=0;entryDy=0;" edge="1" parent="1" source="87jQ6iExm2bQr04ry79y-27" target="87jQ6iExm2bQr04ry79y-5">
          <mxGeometry relative="1" as="geometry" />
        </mxCell>
        <mxCell id="87jQ6iExm2bQr04ry79y-27" value="&lt;h4&gt;Start_date (дата начала)&lt;/h4&gt;" style="rounded=1;whiteSpace=wrap;html=1;" parent="1" vertex="1">
          <mxGeometry x="10" y="690" width="230" height="40" as="geometry" />
        </mxCell>
        <mxCell id="URPomIlKNA_k9wig0QV1-3" style="edgeStyle=orthogonalEdgeStyle;rounded=0;orthogonalLoop=1;jettySize=auto;html=1;entryX=1;entryY=0.5;entryDx=0;entryDy=0;" edge="1" parent="1" source="87jQ6iExm2bQr04ry79y-28" target="87jQ6iExm2bQr04ry79y-3">
          <mxGeometry relative="1" as="geometry" />
        </mxCell>
        <mxCell id="87jQ6iExm2bQr04ry79y-28" value="&lt;h4&gt;Departament_id (id отдела)&lt;/h4&gt;" style="rounded=1;whiteSpace=wrap;html=1;fillColor=#d5e8d4;strokeColor=#82b366;" parent="1" vertex="1">
          <mxGeometry x="1200" y="160" width="230" height="40" as="geometry" />
        </mxCell>
        <mxCell id="URPomIlKNA_k9wig0QV1-2" style="edgeStyle=orthogonalEdgeStyle;rounded=0;orthogonalLoop=1;jettySize=auto;html=1;entryX=1;entryY=0.5;entryDx=0;entryDy=0;" edge="1" parent="1" source="87jQ6iExm2bQr04ry79y-29" target="87jQ6iExm2bQr04ry79y-3">
          <mxGeometry relative="1" as="geometry" />
        </mxCell>
        <mxCell id="87jQ6iExm2bQr04ry79y-29" value="&lt;h4&gt;Company_id (id компании)&lt;/h4&gt;" style="rounded=1;whiteSpace=wrap;html=1;fillColor=#dae8fc;strokeColor=#6c8ebf;" parent="1" vertex="1">
          <mxGeometry x="1200" y="210" width="230" height="40" as="geometry" />
        </mxCell>
        <mxCell id="URPomIlKNA_k9wig0QV1-1" style="edgeStyle=orthogonalEdgeStyle;rounded=0;orthogonalLoop=1;jettySize=auto;html=1;entryX=1;entryY=0.5;entryDx=0;entryDy=0;" edge="1" parent="1" source="87jQ6iExm2bQr04ry79y-30" target="87jQ6iExm2bQr04ry79y-3">
          <mxGeometry relative="1" as="geometry" />
        </mxCell>
        <mxCell id="87jQ6iExm2bQr04ry79y-30" value="&lt;h4&gt;Departament_name (название)&lt;/h4&gt;" style="rounded=1;whiteSpace=wrap;html=1;" parent="1" vertex="1">
          <mxGeometry x="1200" y="260" width="230" height="40" as="geometry" />
        </mxCell>
        <mxCell id="URPomIlKNA_k9wig0QV1-4" style="edgeStyle=orthogonalEdgeStyle;rounded=0;orthogonalLoop=1;jettySize=auto;html=1;entryX=1;entryY=0.5;entryDx=0;entryDy=0;" edge="1" parent="1" source="87jQ6iExm2bQr04ry79y-31" target="87jQ6iExm2bQr04ry79y-3">
          <mxGeometry relative="1" as="geometry" />
        </mxCell>
        <mxCell id="87jQ6iExm2bQr04ry79y-31" value="&lt;h4&gt;Location (местоположение)&lt;/h4&gt;" style="rounded=1;whiteSpace=wrap;html=1;" parent="1" vertex="1">
          <mxGeometry x="1200" y="310" width="230" height="40" as="geometry" />
        </mxCell>
        <mxCell id="URPomIlKNA_k9wig0QV1-5" style="edgeStyle=orthogonalEdgeStyle;rounded=0;orthogonalLoop=1;jettySize=auto;html=1;entryX=1;entryY=0.5;entryDx=0;entryDy=0;" edge="1" parent="1" source="87jQ6iExm2bQr04ry79y-32" target="87jQ6iExm2bQr04ry79y-3">
          <mxGeometry relative="1" as="geometry" />
        </mxCell>
        <mxCell id="87jQ6iExm2bQr04ry79y-32" value="&lt;h4&gt;Employee_count (кол-во сотрудников)&lt;/h4&gt;" style="rounded=1;whiteSpace=wrap;html=1;" parent="1" vertex="1">
          <mxGeometry x="1200" y="360" width="230" height="40" as="geometry" />
        </mxCell>
        <mxCell id="URPomIlKNA_k9wig0QV1-6" style="edgeStyle=orthogonalEdgeStyle;rounded=0;orthogonalLoop=1;jettySize=auto;html=1;entryX=1;entryY=0.5;entryDx=0;entryDy=0;" edge="1" parent="1" source="87jQ6iExm2bQr04ry79y-33" target="87jQ6iExm2bQr04ry79y-4">
          <mxGeometry relative="1" as="geometry" />
        </mxCell>
        <mxCell id="87jQ6iExm2bQr04ry79y-33" value="&lt;h4&gt;Employee_id (id сотрудника)&lt;/h4&gt;" style="rounded=1;whiteSpace=wrap;html=1;fillColor=#d5e8d4;strokeColor=#82b366;" parent="1" vertex="1">
          <mxGeometry x="1200" y="480" width="230" height="40" as="geometry" />
        </mxCell>
        <mxCell id="URPomIlKNA_k9wig0QV1-11" style="edgeStyle=orthogonalEdgeStyle;rounded=0;orthogonalLoop=1;jettySize=auto;html=1;entryX=0;entryY=0.5;entryDx=0;entryDy=0;" edge="1" parent="1" source="87jQ6iExm2bQr04ry79y-34" target="87jQ6iExm2bQr04ry79y-5">
          <mxGeometry relative="1" as="geometry" />
        </mxCell>
        <mxCell id="87jQ6iExm2bQr04ry79y-34" value="&lt;h4&gt;Project_id (id проекта)&lt;/h4&gt;" style="rounded=1;whiteSpace=wrap;html=1;fillColor=#d5e8d4;strokeColor=#82b366;" parent="1" vertex="1">
          <mxGeometry x="10" y="490" width="230" height="40" as="geometry" />
        </mxCell>
        <mxCell id="URPomIlKNA_k9wig0QV1-7" style="edgeStyle=orthogonalEdgeStyle;rounded=0;orthogonalLoop=1;jettySize=auto;html=1;entryX=1;entryY=0.5;entryDx=0;entryDy=0;" edge="1" parent="1" source="87jQ6iExm2bQr04ry79y-36" target="87jQ6iExm2bQr04ry79y-4">
          <mxGeometry relative="1" as="geometry" />
        </mxCell>
        <mxCell id="87jQ6iExm2bQr04ry79y-36" value="&lt;h4&gt;Departament_id (id отдела)&lt;/h4&gt;" style="rounded=1;whiteSpace=wrap;html=1;fillColor=#dae8fc;strokeColor=#6c8ebf;" parent="1" vertex="1">
          <mxGeometry x="1200" y="530" width="230" height="40" as="geometry" />
        </mxCell>
        <mxCell id="URPomIlKNA_k9wig0QV1-8" style="edgeStyle=orthogonalEdgeStyle;rounded=0;orthogonalLoop=1;jettySize=auto;html=1;" edge="1" parent="1" source="87jQ6iExm2bQr04ry79y-37">
          <mxGeometry relative="1" as="geometry">
            <mxPoint x="1120.0000000000002" y="600" as="targetPoint" />
          </mxGeometry>
        </mxCell>
        <mxCell id="87jQ6iExm2bQr04ry79y-37" value="&lt;h4&gt;Employee_name (имя)&lt;/h4&gt;" style="rounded=1;whiteSpace=wrap;html=1;" parent="1" vertex="1">
          <mxGeometry x="1200" y="580" width="230" height="40" as="geometry" />
        </mxCell>
        <mxCell id="URPomIlKNA_k9wig0QV1-9" style="edgeStyle=orthogonalEdgeStyle;rounded=0;orthogonalLoop=1;jettySize=auto;html=1;" edge="1" parent="1" source="87jQ6iExm2bQr04ry79y-38" target="87jQ6iExm2bQr04ry79y-4">
          <mxGeometry relative="1" as="geometry" />
        </mxCell>
        <mxCell id="87jQ6iExm2bQr04ry79y-38" value="&lt;h4&gt;Postion (должность)&lt;/h4&gt;" style="rounded=1;whiteSpace=wrap;html=1;" parent="1" vertex="1">
          <mxGeometry x="1200" y="630" width="230" height="40" as="geometry" />
        </mxCell>
        <mxCell id="URPomIlKNA_k9wig0QV1-10" style="edgeStyle=orthogonalEdgeStyle;rounded=0;orthogonalLoop=1;jettySize=auto;html=1;entryX=1;entryY=0.5;entryDx=0;entryDy=0;" edge="1" parent="1" source="87jQ6iExm2bQr04ry79y-39" target="87jQ6iExm2bQr04ry79y-4">
          <mxGeometry relative="1" as="geometry" />
        </mxCell>
        <mxCell id="87jQ6iExm2bQr04ry79y-39" value="&lt;h4&gt;Salary (зарплата)&lt;/h4&gt;" style="rounded=1;whiteSpace=wrap;html=1;" parent="1" vertex="1">
          <mxGeometry x="1200" y="680" width="230" height="40" as="geometry" />
        </mxCell>
      </root>
    </mxGraphModel>
  </diagram>
</mxfile>
